HIERARCHY
ROOT pelvis
{
  OFFSET 0 100 0
  CHANNELS 6 Xposition Yposition Zposition Zrotation Xrotation Yrotation
  JOINT pelvis_right_femur
  {
    OFFSET -10.78128 -3.44521 -0.5502486
    CHANNELS 3 Zrotation Xrotation Yrotation
    JOINT right_femur_tibia
    {
      OFFSET -0.8047443 -44.0398 -0.1307829
      CHANNELS 3 Zrotation Xrotation Yrotation
      JOINT right_tibia_foot
      {
        OFFSET 3.006224 -47.83518 -5
        CHANNELS 3 Zrotation Xrotation Yrotation
        End Site
        {
          OFFSET 0 -5 15
        }
      }
    }
  }
  JOINT pelvis_left_femur
  {
    OFFSET 10.78128 -3.44521 -0.5502486
    CHANNELS 3 Zrotation Xrotation Yrotation
    JOINT left_femur_tibia
    {
      OFFSET 0.8047443 -44.0398 -0.1307829
      CHANNELS 3 Zrotation Xrotation Yrotation
      JOINT left_tibia_foot
      {
        OFFSET -4.370144 -48.10324 -4.275266
        CHANNELS 3 Zrotation Xrotation Yrotation
        End Site
        {
          OFFSET 0 -5 15
        }
      }
    }
  }
  JOINT pelvis_spine1
  {
    OFFSET 0 6.468898 -3.129235
    CHANNELS 3 Zrotation Xrotation Yrotation
    JOINT spine1
    {
      OFFSET 0 23.15396 4.99043
      CHANNELS 3 Zrotation Xrotation Yrotation
      JOINT spine2
      {
        OFFSET 0 20.79997 -5.064912
        CHANNELS 3 Zrotation Xrotation Yrotation
        JOINT neck
        {
          OFFSET 0 14.38658 9.616178
          CHANNELS 3 Zrotation Xrotation Yrotation
          End Site
          {
            OFFSET 0 20 0
          }
        }
      }
      JOINT right_manubrium
      {
        OFFSET -5.722621 16.35077 3.967754
        CHANNELS 3 Zrotation Xrotation Yrotation
        JOINT right_clavicle
        {
          OFFSET -13.16364 1.694482 -4.693211
          CHANNELS 3 Zrotation Xrotation Yrotation
          JOINT right_humerus
          {
            OFFSET -28.5034 -0.3100689 -2.792744
            CHANNELS 3 Zrotation Xrotation Yrotation
            JOINT right_radius
            {
              OFFSET -25.15693 0.02248979 -1.271978
              CHANNELS 3 Zrotation Xrotation Yrotation
              End Site
              {
                OFFSET -15 0 0
              }
            }
          }
        }
      }
      JOINT left_manubrium
      {
        OFFSET 5.722621 16.35077 3.967754
        CHANNELS 3 Zrotation Xrotation Yrotation
        JOINT left_clavicle
        {
          OFFSET 13.16364 1.694482 -4.693211
          CHANNELS 3 Zrotation Xrotation Yrotation
          JOINT left_humerus
          {
            OFFSET 29.39168 -1.063119 -2.237045
            CHANNELS 3 Zrotation Xrotation Yrotation
            JOINT left_radius
            {
              OFFSET 24.59957 -0.9528479 0.9047498
              CHANNELS 3 Zrotation Xrotation Yrotation
              End Site
              {
                OFFSET 15 -0 -0
              }
            }
          }
        }
      }
    }
  }
}
MOTION
Frames: 23
Frame Time: 0.0416666666667
-425.0767 80.66296 152.9234 6.207159 11.90177 136.758 0.6433297 -9.401554 -8.094727 -0 30.95361 -0 -12.63267 5.298738 3.518809 -4.627815 2.862634 -3.371171 -0 35.7656 -0 14.3261 0.7376366 16.60802 -1.675345 -5.02117 6.463281 -2.52157 21.30601 -6.432802 -0.8914934 20.05199 8.126077 10.0275 -6.462791 0.1873398 10.96244 -23.08078 15.56592 82.78811 34.56329 -16.50011 -0 0 21.38991 -36.82132 28.1682 11.52897 3.912243 -33.29984 -19.94995 -84.73485 -2.701598 17.34076 0 0 -26.88431 17.96777 11.95914 -11.39925
-422.6729 81.06093 149.1497 6.684985 11.87145 135.3022 0.8284286 -10.02276 -8.434439 -0 28.83556 -0 -12.3559 5.865779 3.274313 -4.747467 3.738074 -3.011186 -0 36.78797 -0 14.19367 0.04050652 16.75954 -1.717551 -4.933281 6.266244 -2.361124 21.23377 -6.531963 -0.7649325 20.3287 7.940698 9.681306 -6.773436 0.411226 10.0438 -22.75115 15.38585 83.82687 33.12938 -17.28892 -0 0 20.09065 -36.75914 27.57177 11.41246 4.104196 -33.46041 -19.77379 -84.48837 -2.670514 16.14123 0 0 -27.56548 18.47347 12.06029 -12.20491
-420.0138 81.41626 145.3976 7.207244 11.7923 133.8269 1.086757 -10.41976 -8.721199 -0 26.77645 -0 -12.10676 6.36217 3.019798 -4.786394 4.431809 -2.660114 -0 37.83248 -0 13.94196 -0.5918667 16.86893 -1.698182 -4.860809 6.081682 -2.206331 21.16567 -6.612219 -0.630331 20.58822 7.73789 9.305529 -7.11076 0.6496337 9.097487 -22.50275 15.23164 84.82369 31.54402 -17.96419 -0 0 18.93629 -36.72414 26.99615 11.36495 4.2687 -33.57301 -19.57101 -84.3614 -2.546418 15.19112 0 0 -28.00748 18.84653 12.25846 -12.83712
-417.1063 81.73929 141.6753 7.771334 11.66837 132.3316 1.416257 -10.59352 -8.943328 -0 24.83744 -0 -11.88725 6.772086 2.7526 -4.747636 4.938559 -2.32498 -0 38.94326 -0 13.60289 -1.126295 16.94316 -1.619105 -4.810225 5.913849 -2.061596 21.11413 -6.67499 -0.4887146 20.83106 7.518579 8.908107 -7.457648 0.8945487 8.147154 -22.33925 15.10688 85.76817 29.85082 -18.52537 -0 0 17.94514 -36.71683 26.46815 11.38102 4.391394 -33.64303 -19.36399 -84.34236 -2.322121 14.49501 0 0 -28.22939 19.08342 12.55582 -13.27921
-413.9617 82.04269 137.9967 8.374801 11.50278 130.814 1.814307 -10.54441 -9.089617 -0 23.05701 -0 -11.69252 7.079331 2.466247 -4.634752 5.256019 -2.012338 -0 40.14793 -0 13.20506 -1.540678 16.99389 -1.48442 -4.786004 5.766231 -1.929132 21.08727 -6.721591 -0.338959 21.05992 7.280766 8.490612 -7.803889 1.143125 7.205859 -22.26267 15.01183 86.65973 28.08055 -18.97649 -0 0 17.12491 -36.73273 26.00531 11.45501 4.461805 -33.67223 -19.16671 -84.42039 -1.989137 14.04977 0 0 -28.25032 19.18336 12.95344 -13.52031
-410.5954 82.33953 134.3792 9.013653 11.29612 129.2714 2.27711 -10.27336 -9.149319 -0 21.45637 -0 -11.51361 7.267862 2.152802 -4.451126 5.382081 -1.728917 -0 41.45305 -0 12.77186 -1.8241 17.03482 -1.299815 -4.790427 5.642036 -1.809412 21.0888 -6.753203 -0.1787102 21.27757 7.021002 8.050606 -8.146159 1.396311 6.279511 -22.27417 14.94444 87.50269 26.25624 -19.32267 -0 0 16.47784 -36.76268 25.61683 11.581 4.473926 -33.65907 -18.98449 -84.587 -1.539076 13.84936 0 0 -28.08628 19.14692 13.45002 -13.55395
-407.026 82.64147 130.8428 9.680717 11.04596 127.7019 2.798846 -9.783604 -9.112485 -0 20.04405 -0 -11.33993 7.322265 1.804917 -4.199757 5.313402 -1.48163 -0 42.84204 -0 12.32115 -1.975991 17.07933 -1.072289 -4.823462 5.544505 -1.701529 21.11833 -6.771005 -0.00531377 21.48533 6.735644 7.583959 -8.487195 1.657191 5.370303 -22.37431 14.90097 88.30245 24.39861 -19.56822 -0 0 16.00447 -36.79321 25.30495 11.75235 4.426241 -33.59947 -18.81474 -84.83662 -0.9653803 13.88739 0 0 -27.74949 18.97533 14.04014 -13.37713
-403.275 82.95707 127.4075 10.36435 10.74732 126.1055 3.370728 -9.082725 -8.970844 -0 18.81892 -0 -11.16125 7.228538 1.417623 -3.883509 5.045394 -1.276968 -0 44.2749 -0 11.86565 -2.004897 17.13828 -0.8101647 -4.882655 5.476945 -1.60348 21.17176 -6.776349 0.1833068 21.68216 6.421873 7.086872 -8.83446 1.929305 4.479549 -22.56297 14.87658 89.06279 22.5307 -19.71602 -0 0 15.70541 -36.80712 25.06615 11.96137 4.321452 -33.48788 -18.64857 -85.16617 -0.2654406 14.15783 0 0 -27.2494 18.67048 14.71263 -12.99054
-399.3661 83.29039 124.0926 11.04776 10.3939 124.4851 3.980191 -8.184383 -8.719173 -0 17.77187 -0 -10.96946 6.975315 0.9898628 -3.505701 4.573496 -1.119966 -0 45.68924 -0 11.41375 -1.927086 17.21837 -0.5232026 -4.963078 5.442504 -1.512381 21.24174 -6.770914 0.3878341 21.8643 6.078531 6.557565 -9.198469 2.215075 3.609749 -22.83873 14.86562 89.78407 20.68095 -19.76772 -0 0 15.58143 -36.78457 24.89209 12.19896 4.166032 -33.31844 -18.47265 -85.574 0.5570585 14.6539 0 0 -26.5948 18.23581 15.44897 -12.39969
-395.3239 83.63979 120.9138 11.70919 9.979913 122.8471 4.610529 -7.109617 -8.356881 -0 16.88665 -0 -10.75983 6.555424 0.5256586 -3.070831 3.895437 -1.013041 -0 47.00338 -0 10.97039 -1.764931 17.32082 -0.2226016 -5.057463 5.443692 -1.42468 21.31823 -6.756795 0.6068407 22.02554 5.706837 5.997578 -9.590836 2.51448 2.765899 -23.19815 14.86196 90.46223 18.88449 -19.72452 -0 0 15.63219 -36.70459 24.77015 12.4547 3.969639 -33.08621 -18.27141 -86.05833 1.489974 15.36603 0 0 -25.79616 17.67773 16.2226 -11.61674
-391.1727 83.99743 117.8826 12.32313 9.502016 121.2014 5.241266 -5.887269 -7.889422 -0 16.1411 -0 -10.53199 5.967532 0.03471165 -2.585257 3.014129 -0.9550667 -0 48.12196 -0 10.53795 -1.544888 17.44089 0.07928608 -5.156638 5.48178 -1.336446 21.38913 -6.736502 0.8362698 22.15793 5.310942 5.412652 -10.02209 2.824127 1.956102 -23.63483 14.85938 91.08839 17.18257 -19.58819 -0 0 15.85438 -36.54709 24.68412 12.71716 3.744344 -32.78843 -18.02939 -86.61545 2.511308 16.27946 0 0 -24.86774 17.00727 16.99929 -10.66239
-386.9348 84.34927 115.0039 12.86266 8.96106 119.5607 5.849412 -4.553274 -7.329164 -0 15.50914 -0 -10.29022 5.217548 -0.4678364 -2.057638 1.94064 -0.9410494 -0 48.94469 -0 10.11696 -1.294947 17.56833 0.3696391 -5.250371 5.556184 -1.243782 21.44134 -6.712812 1.06926 22.25291 4.89824 4.813042 -10.49934 3.136911 1.191556 -24.13879 14.85197 91.64929 15.62011 -19.36216 -0 0 16.23967 -36.29537 24.61513 12.97467 3.503651 -32.42545 -17.73362 -87.23791 3.589186 17.37211 0 0 -23.82872 16.24163 17.73927 -9.567121
-382.6287 84.67612 112.2765 13.30265 8.363255 117.9393 6.411519 -3.148664 -6.695365 -0 14.96416 -0 -10.04305 4.319461 -0.9626148 -1.499032 0.6965669 -0.9626405 -0 49.37781 -0 9.706859 -1.041652 17.68892 0.6362265 -5.328593 5.664055 -1.143393 21.46196 -6.688476 1.296467 22.30283 4.479303 4.213183 -11.02409 3.442427 0.4860135 -24.69618 14.83477 92.12838 14.24174 -19.05229 -0 0 16.77337 -35.93883 24.54327 13.2164 3.26135 -32.00145 -17.37582 -87.91326 4.683597 18.61341 0 0 -22.70313 15.40466 18.40108 -8.37107
-378.268 84.95532 109.692 13.62335 7.720406 116.3515 6.906182 -1.716453 -6.013094 -0 14.48351 -0 -9.802091 3.295382 -1.428128 -0.9226133 -0.6849613 -1.009514 -0 49.34705 -0 9.306585 -0.8070439 17.787 0.8686735 -5.382815 5.800207 -1.033264 21.43993 -6.665782 1.506944 22.30226 4.067327 3.630678 -11.5906 3.728137 -0.1451853 -25.28953 14.80429 92.5077 13.08718 -18.66719 -0 0 17.4342 -35.47537 24.44983 13.43359 3.030301 -31.52461 -16.95416 -88.62377 5.749858 19.96468 0 0 -21.51852 14.5262 18.94667 -7.121999
-373.8606 85.16322 107.237 13.81363 7.049099 114.8103 7.316408 -0.2979028 -5.311163 -0 14.05302 -0 -9.580324 2.174688 -1.843386 -0.3431043 -2.160201 -1.071334 -0 48.80962 -0 8.915196 -0.6061106 17.8485 1.059637 -5.407448 5.957514 -0.9132937 21.36757 -6.646078 1.689504 22.2492 3.677083 3.084743 -12.18516 3.981114 -0.686333 -25.89885 14.75908 92.7702 12.18666 -18.21794 -0 0 18.19553 -34.91314 24.32008 13.62063 2.821348 -31.00676 -16.47416 -89.34747 6.743202 21.38133 0 0 -20.30349 13.63961 19.34668 -5.871305
-369.4097 85.27774 104.8939 13.87297 6.368986 113.3255 7.631271 1.071026 -4.619353 -0 13.67069 -0 -9.390097 0.9923653 -2.190483 0.2239677 -3.677777 -1.139823 -0 47.76215 -0 8.532432 -0.4453254 17.86364 1.205563 -5.400669 6.127701 -0.7857329 21.24183 -6.629364 1.834285 22.14551 3.323515 2.594373 -12.78676 4.189962 -1.122616 -26.50315 14.70002 92.90214 11.55776 -17.71724 -0 0 19.02788 -34.27088 24.14593 13.77562 2.642504 -30.46248 -15.94863 -90.0604 7.62347 22.81655 0 0 -19.08492 12.77819 19.58471 -4.668732
-364.9143 85.28096 102.6429 13.81162 5.700577 111.9034 7.846419 2.362213 -3.965478 -0 13.34811 -0 -9.241415 -0.2132145 -2.456519 0.7630454 -5.183239 -1.210357 -0 46.24256 -0 8.159221 -0.3226587 17.82877 1.306798 -5.364608 6.302391 -0.6552521 21.06502 -6.614108 1.934146 21.99666 3.020264 2.176609 -13.36892 4.346449 -1.441196 -27.08234 14.63034 92.89494 11.20431 -17.17824 -0 0 19.90212 -33.57673 23.92786 13.90032 2.498557 -29.90788 -15.39654 -90.73973 8.358836 24.22598 0 0 -17.88558 11.9712 19.6592 -3.556968
-360.3717 85.16098 100.4641 13.64895 5.063046 110.5462 7.963408 3.556335 -3.372853 -0 13.10958 -0 -9.140793 -1.402724 -2.634438 1.259278 -6.624204 -1.282689 -0 44.32482 -0 7.798026 -0.2290148 17.7465 1.367016 -5.304818 6.474118 -0.5285863 20.8446 -6.597358 1.985514 21.81077 2.778457 1.845235 -13.9026 4.446435 -1.631915 -27.61898 14.55528 92.74599 11.11766 -16.61336 -0 0 20.79255 -32.86561 23.67567 13.99938 2.391113 -29.35927 -14.84105 -91.36659 8.927803 25.57195 0 0 -16.72287 11.24062 19.5827 -2.567504
-355.7788 84.91319 98.33847 13.41043 4.472511 109.2525 7.988129 4.642117 -2.858667 -0 12.98904 -0 -9.090945 -2.538145 -2.722695 1.699175 -7.954905 -1.360678 -0 42.10817 -0 7.452949 -0.1506448 17.6245 1.392163 -5.22921 6.63709 -0.4138353 20.59221 -6.575156 1.988489 21.5973 2.606039 1.610124 -14.35928 4.489926 -1.687524 -28.09951 14.48154 92.45841 11.27999 -16.03346 -0 0 21.67919 -32.17575 23.40777 14.07921 2.319021 -28.83195 -14.30712 -91.92788 9.319335 26.82648 0 0 -15.60897 10.59967 19.37872 -1.718735
-351.1338 84.5406 96.24889 13.12386 3.941049 108.0181 7.928863 5.614229 -2.433497 -0 13.0259 -0 -9.091274 -3.584548 -2.723995 2.071129 -9.139262 -1.45122 -0 39.7038 -0 7.129572 -0.07186354 17.47329 1.389207 -5.146758 6.787561 -0.3196029 20.32223 -6.543142 1.946256 21.36557 2.507739 1.47729 -14.71371 4.48033 -1.603419 -28.51483 14.41657 92.03963 11.66875 -15.44739 -0 0 22.54866 -31.54516 23.14906 14.14673 2.279048 -28.33946 -13.81917 -92.41665 9.531488 27.97226 0 0 -14.55228 10.05307 19.07722 -1.016493
-346.4372 84.05356 94.18045 12.81598 3.476481 106.8366 7.794458 6.470463 -2.101866 -0 13.26081 -0 -9.138941 -4.511211 -2.643551 2.365774 -10.15209 -1.562749 -0 37.22213 -0 6.834641 0.02255043 17.30379 1.365003 -5.066281 6.923803 -0.2541821 20.05004 -6.497199 1.864036 21.1237 2.485578 1.449499 -14.94576 4.423198 -1.377027 -28.85997 14.36788 91.49957 12.26118 -14.86212 -0 0 23.39395 -31.00862 22.92826 14.20836 2.266662 -27.89328 -13.39931 -92.83091 9.569221 29.00156 0 0 -13.55967 9.598938 18.70989 -0.4565101
-341.6923 83.46894 92.12049 12.50981 3.082766 105.7007 7.59299 7.208842 -1.863545 -0 13.73205 -0 -9.230202 -5.292078 -2.487354 2.576128 -10.97862 -1.703681 -0 34.76344 -0 6.575724 0.1456332 17.12528 1.32546 -4.995494 7.045773 -0.2249272 19.7907 -6.434031 1.747905 20.87792 2.53966 1.527203 -15.04135 4.324815 -1.00708 -29.13335 14.34259 90.84875 13.03813 -14.28302 -0 0 24.21306 -30.59571 22.77482 14.26932 2.276782 -27.50303 -13.06618 -93.17172 9.442071 29.91379 0 0 -12.63893 9.231413 18.30623 -0.02787264
-336.9055 82.80896 90.05866 12.22323 2.760751 104.6024 7.331055 7.825162 -1.715161 -0 14.47269 -0 -9.361661 -5.905777 -2.260841 2.697557 -11.61295 -1.881074 -0 32.41281 -0 6.361022 0.3072499 16.94421 1.275065 -4.940418 7.154615 -0.2378434 19.55781 -6.351588 1.603781 20.63243 2.668977 1.709493 -14.9924 4.190933 -0.4930304 -29.33567 14.34696 90.09681 13.98633 -13.71438 -0 0 25.00716 -30.32971 22.71621 14.33332 2.304385 -27.177 -12.83458 -93.44087 9.162172 30.71225 0 0 -11.80091 8.943328 17.89082 0.2833822
